<svg width="32" height="32" viewBox="0 0 32 32" fill="none" xmlns="http://www.w3.org/2000/svg">
<path d="M27.988 11.5942L26.9815 17.3681C26.8574 18.0059 26.3492 18.3938 25.7632 18.401H11.09L10.7987 20.0432H24.7832C25.5196 20.0991 26.0191 20.6208 26.028 21.288C25.9745 22.0228 25.4529 22.5237 24.7832 22.5328H9.31546C8.47892 22.4576 7.9801 21.7907 8.07062 21.0496L8.73276 17.4475L7.7263 7.32992L4.86584 6.42946C4.16682 6.15192 3.88152 5.51956 4.04478 4.8668C4.31624 4.1865 4.9667 3.87568 5.60744 4.04574L9.26248 5.21112C9.75488 5.3957 10.0381 5.79876 10.11 6.27056L10.3219 8.28348L26.902 10.1375C27.6638 10.3025 28.0774 10.9059 27.988 11.5942ZM13.1054 25.1466C13.1054 26.1961 12.2546 27.0469 11.2051 27.0469C10.1555 27.0469 9.30474 26.1961 9.30474 25.1466C9.30474 24.097 10.1556 23.2462 11.2051 23.2462C12.2546 23.2462 13.1054 24.0971 13.1054 25.1466ZM24.4505 25.1466C24.4505 26.1961 23.5997 27.0469 22.5501 27.0469C21.5006 27.0469 20.6498 26.1961 20.6498 25.1466C20.6498 24.097 21.5006 23.2462 22.5501 23.2462C23.5997 23.2462 24.4505 24.0971 24.4505 25.1466Z" fill="#101010"/>
</svg>
